<svg width="500" min-height="0" viewBox="0 0 1070 1278" fill="none"
  xmlns="http://www.w3.org/2000/svg">
  <g id="Leering" clip-path="url(#clip0_2_2)">
    <g id="monitor">
      <path id="Vector" d="M826.32 755.41C826.32 801.69 774.09 839.21 709.66 839.21C645.23 839.21 592.99 801.69 592.99 755.41C592.99 709.13 645.23 671.62 709.7 671.62C774.17 671.62 826.32 709.14 826.32 755.41Z" fill="#872F12"/>
      <path id="Vector_2" d="M826.32 755.41C826.32 801.69 774.09 839.21 709.66 839.21C710.66 838.21 709.66 674.21 709.66 671.62C774.09 671.62 826.32 709.14 826.32 755.41Z" fill="#77260E"/>
      <path id="Vector_3" d="M421.47 162.76C421.511 156.743 423.909 150.981 428.149 146.712C432.389 142.442 438.133 140.004 444.15 139.92L1047.36 135.52C1050.29 135.475 1053.19 136.032 1055.89 137.156C1058.6 138.281 1061.04 139.949 1063.07 142.057C1065.1 144.165 1066.68 146.668 1067.7 149.41C1068.73 152.153 1069.17 155.077 1069.02 158L1046.26 667C1045.92 673.075 1043.28 678.794 1038.88 682.999C1034.49 687.204 1028.65 689.581 1022.57 689.65H444.15C438.146 689.632 432.392 687.24 428.144 682.997C423.895 678.755 421.496 673.004 421.47 667V162.76Z" fill="#A83D17"/>
      <path id="Vector_4" d="M421.47 162.53C421.496 156.508 423.889 150.738 428.132 146.465C432.375 142.191 438.128 139.758 444.15 139.69L1047.36 135.51C1050.29 135.464 1053.19 136.022 1055.89 137.148C1058.59 138.274 1061.04 139.945 1063.06 142.056C1065.09 144.167 1066.66 146.673 1067.68 149.418C1068.69 152.163 1069.13 155.088 1068.97 158.01L1046.32 640C1045.96 646.079 1043.31 651.795 1038.9 655.998C1034.49 660.2 1028.66 662.577 1022.57 662.65H444.15C438.141 662.632 432.383 660.236 428.133 655.987C423.884 651.737 421.488 645.979 421.47 639.97V162.53Z" fill="#B8441C"/>
      <path id="Vector_5" d="M442.17 177.37C442.196 171.35 444.589 165.582 448.833 161.312C453.077 157.042 458.83 154.613 464.85 154.55L1026.7 151C1029.62 150.953 1032.52 151.511 1035.22 152.638C1037.92 153.765 1040.35 155.438 1042.37 157.55C1044.39 159.663 1045.96 162.17 1046.96 164.915C1047.97 167.659 1048.4 170.582 1048.22 173.5L1027.33 581.97C1026.94 588.055 1024.27 593.769 1019.85 597.969C1015.43 602.169 1009.59 604.544 1003.49 604.62H464.85C458.841 604.602 453.083 602.206 448.833 597.957C444.584 593.707 442.188 587.949 442.17 581.94V177.37Z" fill="#F6F4F6"/>
    </g>
    <g id="green-tick">
      <path id="Vector_6" d="M936.225 541.42L959.425 558.18L989.715 496.95L958.135 538.85L943.315 529.18L936.225 541.42Z" fill="#42A58C"/>
    </g>
    <path id="button" d="M911.4 531.11H816V558.18H911.4V531.11Z" fill="#7CC1FB"/>
    <path id="second-line" d="M911.4 383.195H509.2V410.265H911.4V383.195Z" fill="#454545"/>
    <path id="first-line" d="M911.4 287.47H509.2V314.54H911.4V287.47Z" fill="#DD764E"/>
    <path id="header" d="M644.56 195.94H509.2V223.01H644.56V195.94Z" fill="#7CC1FB"/>
    <g id="lower-body">
      <path id="Vector_7" d="M520.7 1184.69C520.7 1184.69 441.38 1195.86 402.18 1178.69C403.11 1176.97 401.25 1151.19 401.25 1151.19C401.25 1151.19 404.05 1117.67 451.64 1109.08C499.23 1100.49 520.7 1184.69 520.7 1184.69Z" fill="#44C2A4"/>
      <path id="Vector_8" d="M402.2 1178.67C402.2 1178.67 421.03 1137.42 435.64 1132.26C450.25 1127.1 423.64 1120.26 423.64 1120.26C423.64 1120.26 394.54 1130.54 402.2 1178.67Z" fill="#3CB293"/>
      <path id="Vector_9" d="M492.8 914.83H435.2C427.374 914.83 421.03 921.174 421.03 929V1151.6C421.03 1159.43 427.374 1165.77 435.2 1165.77H492.8C500.626 1165.77 506.97 1159.43 506.97 1151.6V929C506.97 921.174 500.626 914.83 492.8 914.83Z" fill="#E8961B"/>
      <path id="Vector_10" d="M273.7 1184.69C273.7 1184.69 353.02 1195.86 392.22 1178.69C391.29 1176.97 393.15 1151.19 393.15 1151.19C393.15 1151.19 390.35 1117.67 342.76 1109.08C295.17 1100.49 273.7 1184.69 273.7 1184.69Z" fill="#44C2A4"/>
      <path id="Vector_11" d="M392.25 1178.67C392.25 1178.67 373.42 1137.42 358.81 1132.26C344.2 1127.1 370.81 1120.26 370.81 1120.26C370.81 1120.26 399.91 1130.54 392.25 1178.67Z" fill="#3CB293"/>
      <path id="Vector_12" d="M359.25 914.83H301.65C293.824 914.83 287.48 921.174 287.48 929V1151.6C287.48 1159.43 293.824 1165.77 301.65 1165.77H359.25C367.076 1165.77 373.42 1159.43 373.42 1151.6V929C373.42 921.174 367.076 914.83 359.25 914.83Z" fill="#E8961B"/>
      <path id="Vector_13" d="M515.22 922.38C515.22 941.47 501.16 956.95 483.82 956.95H314.58C297.24 956.95 283.18 941.47 283.18 922.38V901.27C283.18 882.18 297.24 866.71 314.58 866.71H483.82C501.16 866.71 515.22 882.18 515.22 901.27V922.38Z" fill="#E8961B"/>
    </g>
    <g id="tool">
      <path id="Vector_14" d="M555.62 983.59H505.77V1277.5H555.62V983.59Z" fill="#581C0C"/>
      <path id="Vector_15" d="M290.92 983.59H241.07V1277.5H290.92V983.59Z" fill="#581C0C"/>
      <path id="Vector_16" d="M576.54 926.86H230.44C224.917 926.86 220.44 931.337 220.44 936.86V980.46C220.44 985.983 224.917 990.46 230.44 990.46H576.54C582.063 990.46 586.54 985.983 586.54 980.46V936.86C586.54 931.337 582.063 926.86 576.54 926.86Z" fill="#77260E"/>
    </g>
    <g id="table">
      <path id="Vector_17" d="M1033 752.46H30.94C13.8523 752.46 0 766.312 0 783.4V818.21C0 835.298 13.8523 849.15 30.94 849.15H1033C1050.09 849.15 1063.94 835.298 1063.94 818.21V783.4C1063.94 766.312 1050.09 752.46 1033 752.46Z" fill="#B8441C"/>
      <path id="Vector_18" d="M1063.94 800.8H3.76039e-05C-2.4435e-05 816.272 8.99365e-06 807.727 8.99365e-06 816.272V833.678C8.99365e-06 842.223 13.8523 849.15 30.94 849.15H1033C1050.09 849.15 1063.94 842.223 1063.94 833.678V816.272V800.8Z" fill="#A53D19"/>
      <path id="Vector_19" d="M1012.82 849.15H962.97V1251.72H1012.82V849.15Z" fill="#77260E"/>
      <path id="Vector_20" d="M94.97 849.15H50.28V1251.72H94.97V849.15Z" fill="#77260E"/>
    </g>
    <g id="left-hand">
      <path id="Vector_21" d="M205 627C205 627 161.682 671.65 162.591 699.12C163.5 726.59 163.373 750.69 181.62 768.74C199.867 786.79 232.372 798.58 256 796" fill="#D25525"/>
    </g>
    <g id="right-hand">
      <path id="Vector_22" d="M589 620C589 620 631.794 653.962 630.38 699.12C629.52 726.59 629.63 750.69 612.38 768.74C595.13 786.79 555 803 524 796" fill="#DC5A28"/>
      <path id="Vector_23" d="M604.17 628.65C604.17 628.65 553.89 710.3 563.34 730.06C572.79 749.82 570.22 793.66 570.22 793.66" fill="#DC5A28"/>
    </g>
    <g id="neck">
      <path id="Vector_24" d="M306.46 541.42C306.46 541.42 297.01 622.28 321.93 640.25C321.93 640.25 480.06 632.25 483.5 622.25C486.94 612.25 489.5 598.25 489.5 590.81V558.39" fill="#E7D5C6"/>
    </g>
    <g id="left-hand-success">
      <path id="Vector_25" d="M139.23 423.74C139.23 423.74 132.55 401.17 122.78 413.29L121.14 399.63C120.77 396.57 116.61 394.55 111.85 395.13C107.25 395.68 103.85 398.45 103.85 401.39C102.12 399.52 98.63 399.04 95.24 400.39C91.24 402.03 88.87 405.69 90.04 408.55L92.53 414.62L90.05 408.62C88.88 405.76 84.13 405.01 79.44 406.93C74.75 408.85 71.89 412.72 73.06 415.57L77.06 425.32L75.2 420.78C74.03 417.92 70.2 416.78 66.69 418.23C63.18 419.68 61.24 423.16 62.41 426.01C62.5089 432.657 64.0763 439.2 67 445.17C71.73 454.17 81 468.37 86.27 489C91.54 509.63 136.18 485.56 136.18 485.56C136.18 485.56 142.18 446.46 142.18 443.88C142.18 441.3 143.1 429.81 139.23 423.74Z" fill="#EFE2D7"/>
      <path id="Vector_26" d="M203.7 614.9C203.7 614.9 180.5 576.66 166.32 564.2C152.14 551.74 138.8 478.26 138.8 480C138.8 481.74 122.9 488.16 109.15 489C95.4 489.84 80.79 484.27 80.79 484.27C80.79 484.27 91.53 515.21 102.28 555.17C113.03 595.13 131.49 616.62 143.53 628.65C143.53 628.65 184.78 664.32 207.98 673.77C231.18 683.22 203.7 614.9 203.7 614.9Z" fill="#DC5A28"/>
    </g>
    <g id="body">
      <path id="Vector_27" d="M612.39 590.84C612.39 590.84 612.33 606.3 604.17 628.65C596.01 651 571.51 723.18 570.17 736.08C568.83 748.98 562 838.34 562.43 843.5C562.86 848.66 527.25 874 511.35 881.31C495.45 888.62 471.82 899.36 456.35 902.37C440.88 905.38 392.79 909.67 394.06 909.67C395.33 909.67 394.06 748.97 394.06 748.97L406.91 719.32" fill="#D25525"/>
      <path id="Vector_28" d="M178.76 591.69C178.76 591.69 178.81 607.16 186.98 629.51C190.15 638.19 195.79 654.41 201.58 671.75C201.94 672.82 202.3 673.89 202.65 674.97C211.41 701.34 220.17 729.36 220.93 736.97C222.21 749.87 229.09 839.24 228.66 844.4C228.23 849.56 263.89 874.91 279.79 882.21C295.69 889.51 319.33 900.26 334.79 903.27C350.25 906.28 398.34 910.57 397.07 910.57C395.8 910.57 397.07 749.87 397.07 749.87L384.22 720.22" fill="#DC5A28"/>
      <path id="Vector_29" d="M577.96 551.3C577.96 551.3 616.7 568.49 616.7 578.8C616.7 589.11 599.51 626.07 581.46 644.12C563.41 662.17 472.32 734.9 440.52 740.22C408.72 745.54 399.27 744.67 396.69 745.53L394.11 746.39V619.2C394.11 619.2 393.29 610.61 402.11 611.46C410.93 612.31 426.8 613.61 436.25 614.46C445.7 615.31 464.18 619.62 476.64 614.03C489.1 608.44 501.13 592.12 518.32 580.09C535.51 568.06 543.25 559.89 551.84 557.31C560.43 554.73 553.01 551.3 577.96 551.3Z" fill="#B3421B"/>
      <path id="Vector_30" d="M210.27 551.3C210.27 551.3 171.46 568.49 171.46 578.8C171.46 589.11 188.69 626.07 206.79 644.12C224.89 662.17 316.25 734.9 348.14 740.21C380.03 745.52 389.51 744.67 392.14 745.53L394.73 746.39V619.2C394.73 619.2 395.55 610.61 386.73 611.46C377.91 612.31 361.97 613.61 352.49 614.46C343.01 615.31 324.49 619.62 311.99 614.03C299.49 608.44 287.42 592.12 270.18 580.09C252.94 568.06 245.18 559.89 236.57 557.31C227.96 554.73 235.3 551.3 210.27 551.3Z" fill="#B3421B"/>
    </g>
    <g id="head">
      <path id="Vector_31" d="M568.7 308.32C565.348 309.755 562.703 312.463 561.347 315.848C559.991 319.233 560.035 323.018 561.47 326.37C562.907 329.723 565.617 332.368 569.003 333.724C572.39 335.079 576.176 335.035 579.53 333.6L613.53 319.05C616.873 317.606 619.506 314.893 620.851 311.509C622.195 308.124 622.141 304.345 620.7 301C619.267 297.659 616.568 295.021 613.194 293.666C609.82 292.311 606.046 292.348 602.7 293.77L568.7 308.32Z" fill="#A93D1A"/>
      <path id="Vector_32" d="M201.82 318.63C205.172 320.065 207.817 322.773 209.173 326.158C210.529 329.543 210.485 333.328 209.05 336.68C207.615 340.02 204.915 342.655 201.542 344.01C198.169 345.365 194.397 345.329 191.05 343.91L157.05 329.36C155.39 328.65 153.887 327.619 152.625 326.327C151.364 325.035 150.37 323.508 149.699 321.831C149.029 320.155 148.695 318.363 148.718 316.558C148.74 314.752 149.118 312.969 149.83 311.31C151.265 307.958 153.973 305.313 157.358 303.957C160.743 302.601 164.528 302.645 167.88 304.08L201.82 318.63Z" fill="#A93D1A"/>
      <path id="Vector_33" d="M603.98 211.13C603.98 211.13 613.19 416.38 612.33 432.71C611.47 449.04 614.05 486.85 582.25 510.91C550.45 534.97 432.7 594.27 426.7 596C420.7 597.73 397.7 608 390.6 608C383.5 608 390.6 190.34 390.6 190.34V608H383.51C383.51 608 309.82 572.77 292.63 565C275.44 557.23 259.98 553 253.96 553C247.94 553 179.19 535 169.7 477.4C160.21 419.8 162.86 345 162.86 345C162.86 345 160.09 294.34 159.76 232.88C159.43 171.42 249.66 174.88 249.66 174.88L383.51 189.5" fill="#EFE2D7"/>
      <path id="Vector_34" d="M158.57 270.71C158.57 270.71 158.57 159.85 180.48 119.89C202.39 79.93 237.2 40 265.56 29.65C293.92 19.3 337.75 2.58 357.09 1.29L376.43 0C376.43 0 376.43 10.31 394.43 19.34C412.43 28.37 457.6 33.52 471.78 36.1C485.96 38.68 502.72 36.1 519.48 45.1C536.24 54.1 552.99 65.72 560.73 77.33C568.47 88.94 587.8 104.4 596.82 157.25C605.84 210.1 608.42 270.69 608.42 270.69C608.42 270.69 600.69 239.75 594.24 246.2C587.79 252.65 589.09 271.98 590.38 279.71C591.67 287.44 592.95 340.3 562.02 380.27C531.09 420.24 504.02 451.17 453.73 460.19C403.44 469.21 349.31 469.19 304.2 446.01C259.09 422.83 215.2 388.01 199.78 350.62C199.78 350.62 180.44 305.5 180.44 273.27C180.44 241.04 170.13 252.64 170.13 252.64C170.13 252.64 166.3 284 158.57 270.71Z" fill="#2E2B2D"/>
    </g>
  </g>
  <defs>
    <style>


      #head {
        transform-box: fill-box;
        transform-origin: center bottom;
        animation: headNod 10s ease-in-out infinite alternate;
      }

      @keyframes headNod {
        10% {
          transform: rotate(12deg);
        }

        20% {
          transform: rotate(-3deg);
        }

        30% {
          transform: rotate(7deg);
        }

        40% {
          transform: rotate(-5deg);
        }

        50% {
          transform: rotate(3deg);
        }

        60% {
          transform: rotate(-7deg);
        }

        70% {
          transform: rotate(3deg);
        }

        80% {
          transform: rotate(-8deg);
        }

        90% {
          transform: rotate(4deg);
        }

        100% {
          transform: rotate(-1deg);
        }
      }

      #body,
      #neck {
        transform-box: fill-box;
        transform-origin: center bottom;
        transform: rotate(-5deg);
        animation: bodyMove 1s ease-in-out infinite alternate;
      }

      @keyframes bodyMove {
        0% {
          transform: rotate(-0.5deg);
        }

        100% {
          transform: rotate(0.5deg);
        }
      }


      #green-tick {
        clip-path: polygon(0 0, 0% 0, 0% 100%, 0% 100%);
        animation: tickIn 10s ease-in-out infinite;
      }

      @keyframes tickIn {
        0%,
        85% {
          opacity: 1;
          clip-path: polygon(0 0, 0% 0, 0% 100%, 0% 100%);
        }

        90%,
        95% {
          opacity: 1;
          clip-path: polygon(0 0, 100% 0, 100% 100%, 0% 100%);
        }
        100% {
          opacity: 0;
        }
      }

      #left-hand-success {
        animation: successHandAppears 10s ease-in-out infinite;
      }

      @keyframes successHandAppears {
        0%,
        88% {
          opacity: 0;
        }

        89%,
        98% {
          opacity: 1;
        }

        100% {
          opacity: 0;
        }
      }

      #left-hand {
        transform-box: fill-box;
        transform-origin: center right;
        animation: leftHand 10s ease-in-out infinite;
      }

      @keyframes leftHand {
        0%,
        45% {
          opacity: 1;
          transform: translateY(0px);
        }

        50% {
          opacity: 1;
          transform: translateY(-5px);
        }

        52.5% {
          opacity: 1;
          transform: translateY(5px);
        }

        55% {
          opacity: 1;
          transform: translateY(-5px);
        }

        57.5% {
          opacity: 1;
          transform: translateY(5px);
        }

        60% {
          opacity: 1;
          transform: translateY(-5px);
        }
        62.5% {
          opacity: 1;
          transform: translateY(5px);
        }
        65% {
          opacity: 1;
          transform: translateY(-5px);
        }
        67.5% {
          opacity: 1;
          transform: translateY(5px);
        }
        70% {
          opacity: 1;
          transform: translateY(-5px);
        }
        72.5% {
          opacity: 1;
          transform: translateY(5px);
        }

        75% {
          opacity: 1;
          transform: translateY(-5px);
        }

        77.5% {
          transform: translateY(5px);
        }

        80% {
          transform: translateY(-5px);
        }

        82.5% {
          opacity: 1;
          transform: translateY(0px);
        }

        82.5%,
        88% {
          opacity: 1;
        }
        89%,
        98% {
          opacity: 0;
        }

        100% {
          opacity: 1;
        }
      }

      #right-hand {
        transform-box: fill-box;
        transform-origin: center left;
        animation: rightHand 10s ease-in-out infinite;
      }

      @keyframes rightHand {
        0%,
        45% {
          opacity: 1;
          transform: translateY(0px);
        }

        50% {
          opacity: 1;
          transform: translateY(5px);
        }

        52.5% {
          opacity: 1;
          transform: translateY(-5px);
        }

        55% {
          opacity: 1;
          transform: translateY(5px);
        }

        57.5% {
          opacity: 1;
          transform: translateY(-5px);
        }

        60% {
          opacity: 1;
          transform: translateY(5px);
        }
        62.5% {
          opacity: 1;
          transform: translateY(-5px);
        }
        65% {
          opacity: 1;
          transform: translateY(5px);
        }
        67.5% {
          opacity: 1;
          transform: translateY(-5px);
        }
        70% {
          opacity: 1;
          transform: translateY(5px);
        }
        72.5% {
          opacity: 1;
          transform: translateY(-5px);
        }

        75% {
          opacity: 1;
          transform: translateY(5px);
        }

        77.5% {
          opacity: 1;
          transform: translateY(-5px);
        }

        80% {
          opacity: 1;
          transform: translateY(5px);
        }

        82% {
          opacity: 1;
          transform: translateY(0px);
        }

        83.5% {
          opacity: 1;
          transform: translate(-10px, 10px);
        }

        85% {
          opacity: 1;
          transform: translate(0px);
        }

        90%,
        95% {
          opacity: 1;
        }

        98% {
          opacity: 0;
        }

        100% {
          opacity: 1;
        }
      }

      #header {
        opacity: 0;
        animation: appearHeader 10s ease-in-out infinite;
      }

      @keyframes appearHeader {
        0%,
        15% {
          fill: #7cc1fb;
          opacity: 0;
        }

        20%,
        83.5% {
          fill: #7cc1fb;
          opacity: 1;
        }

        85%,
        97% {
          opacity: 1;
          transform: scale(1);
          fill: #42a58c;
        }

        100% {
          opacity: 0;
        }
      }

      #button {
        opacity: 0;
        transform-box: fill-box;
        transform-origin: center;
        animation: appearButton 10s ease-in-out infinite;
      }

      @keyframes appearButton {
        0%,
        15% {
          opacity: 0;
          fill: #7cc1fb;
          transform: scale(1);
        }

        20%,
        82% {
          opacity: 1;
          fill: #7cc1fb;
          transform: scale(1);
        }

        83.5% {
          opacity: 1;
          fill: #7cc1fb;
          transform: scale(0.8);
        }

        85%,
        97% {
          opacity: 1;
          transform: scale(1);
          fill: #42a58c;
        }

        100% {
          opacity: 0;
        }
      }

      #first-line {
        clip-path: polygon(0 0, 0% 0%, 0% 100%, 0% 100%);
        animation: firstLineFull 10s ease-out infinite;
      }

      @keyframes firstLineFull {
        0%,
        35% {
          fill: #dd764e;
          opacity: 1;
          clip-path: polygon(0 0, 0% 0%, 0% 100%, 0% 100%);
        }

        40%,
        82.5% {
          opacity: 1;
          fill: #dd764e;
          clip-path: polygon(0 0, 100% 0%, 100% 100%, 0% 100%);
        }

        85%,
        97% {
          fill: #42a58c;
          opacity: 1;
          clip-path: polygon(0 0, 100% 0%, 100% 100%, 0% 100%);
        }

        100% {
          opacity: 0;
        }
      }

      #second-line {
        clip-path: polygon(0 0, 0% 0%, 0% 100%, 0% 100%);
        animation: secondLineFull 10s ease-out infinite;
      }

      @keyframes secondLineFull {
        0%,
        50% {
          opacity: 1;
          fill: #454545;
          clip-path: polygon(0 0, 0% 0%, 0% 100%, 0% 100%);
        }

        55%,
        65% {
          opacity: 1;
          fill: #454545;
          clip-path: polygon(0 0, 50% 0%, 50% 100%, 0% 100%);
        }

        70%,
        77.5% {
          opacity: 1;
          fill: #454545;
          clip-path: polygon(0 0, 70% 0%, 70% 100%, 0% 100%);
        }

        82.5% {
          fill: #454545;
          opacity: 1;
          clip-path: polygon(0 0, 100% 0%, 100% 100%, 0% 100%);
        }

        85%,
        97% {
          fill: #42a58c;
          opacity: 1;
          clip-path: polygon(0 0, 100% 0%, 100% 100%, 0% 100%);
        }

        100% {
          opacity: 0;
        }
      }
    </style>
  </defs>
</svg>
